<svg version="1.1" id="Layer_1" xmlns="http://www.w3.org/2000/svg" xmlns:xlink="http://www.w3.org/1999/xlink" x="0px" y="0px"
	 width="100%" viewBox="0 0 1536 290" enable-background="new 0 0 1536 290" xml:space="preserve">
<path fill="#000000" opacity="1.000000" stroke="none" 
	d="
M1449.000000,291.000000 
	C966.000000,291.000000 483.500061,291.000000 1.000065,291.000000 
	C1.000043,194.333374 1.000043,97.666733 1.000022,1.000078 
	C512.999939,1.000052 1024.999878,1.000052 1536.999756,1.000026 
	C1536.999878,97.666595 1536.999878,194.333191 1537.000000,290.999878 
	C1507.833374,291.000000 1478.666626,291.000000 1449.000000,291.000000 
M896.007751,111.921989 
	C896.003662,122.553978 895.982300,133.185989 895.998779,143.817947 
	C896.046448,174.546616 896.109192,205.275238 896.015808,236.894196 
	C896.073730,239.598648 896.131714,242.303101 896.095764,245.526962 
	C896.391785,245.611908 896.687866,245.696854 897.911011,245.942169 
	C916.907654,245.938889 935.907593,246.145233 954.899780,245.853043 
	C966.137939,245.680130 977.214111,243.997375 987.527466,239.051010 
	C991.685181,237.056946 995.820312,235.015701 1000.680969,232.647446 
	C999.025879,237.587616 997.676453,241.615463 996.224854,245.948196 
	C1014.887146,245.948196 1032.881226,246.016342 1050.872192,245.811218 
	C1052.225464,245.795792 1054.228882,244.099915 1054.777344,242.725311 
	C1056.770020,237.731430 1058.502319,232.602264 1059.868286,227.402100 
	C1060.624023,224.524872 1062.023682,223.878403 1064.730713,223.949875 
	C1071.225220,224.121323 1077.736206,224.207642 1084.222290,223.918472 
	C1087.382568,223.777573 1088.479370,225.029205 1089.320312,227.813675 
	C1091.160645,233.907974 1093.381348,239.887390 1095.426880,245.855759 
	C1128.799072,245.855759 1161.791626,246.211243 1194.770386,245.691925 
	C1209.252075,245.463882 1223.238281,241.641006 1235.210083,232.985367 
	C1241.521484,228.422318 1247.062988,222.794647 1253.119629,217.501266 
	C1253.119629,226.792984 1253.119629,236.196121 1253.119629,245.932053 
	C1272.786377,245.932053 1292.077881,246.001694 1311.368286,245.882843 
	C1316.160645,245.853333 1321.006592,245.566559 1325.730469,244.798492 
	C1359.509277,239.306335 1381.633179,216.439240 1386.378052,182.116501 
	C1391.004517,189.776169 1394.875977,197.141724 1394.211426,206.593674 
	C1393.406860,218.035507 1394.015381,229.576675 1394.012695,241.074875 
	C1394.012329,242.658783 1394.012573,244.242706 1394.012573,245.649231 
	C1412.639771,245.649231 1430.557861,245.649231 1448.809326,245.649231 
	C1448.809326,230.207260 1448.739014,215.074799 1448.882324,199.944366 
	C1448.904907,197.575684 1449.445679,194.985367 1450.513672,192.888077 
	C1461.732056,170.858154 1473.094604,148.901550 1484.443848,126.938332 
	C1489.007812,118.106133 1493.636719,109.307549 1498.496338,99.994865 
	C1478.159302,99.994865 1458.669678,99.932045 1439.182617,100.128807 
	C1437.807129,100.142693 1435.840332,101.779022 1435.183960,103.154907 
	C1430.518555,112.935181 1426.122925,122.844177 1421.505737,133.010620 
	C1416.304199,121.693451 1411.321777,110.853157 1406.420410,100.189148 
	C1385.613281,100.189148 1365.192627,100.189148 1344.402710,100.189148 
	C1345.439331,102.503342 1346.342407,104.519753 1347.533325,107.178505 
	C1345.999268,106.644783 1345.115601,106.381859 1344.266113,106.035019 
	C1334.091797,101.880867 1323.562500,99.838989 1312.524292,99.953896 
	C1294.862427,100.137741 1277.197021,99.997757 1259.533203,99.994766 
	C1257.432739,99.994408 1255.332275,99.994713 1252.842529,99.994713 
	C1252.842529,109.919868 1252.842529,119.284210 1252.842529,129.155151 
	C1238.037354,109.830635 1216.747192,99.686172 1190.856567,99.961136 
	C1172.694824,100.154022 1154.529297,99.990662 1136.365479,100.005142 
	C1134.941895,100.006279 1133.518311,100.155128 1131.737549,100.255447 
	C1131.737549,128.616730 1131.737549,156.553864 1131.737549,185.731232 
	C1121.527832,157.593918 1111.791504,130.671402 1101.920288,103.798340 
	C1101.377441,102.320297 1099.729248,100.174896 1098.569580,100.158325 
	C1081.943237,99.920738 1065.312378,99.996002 1048.707275,99.996002 
	C1045.250000,109.621201 1041.944214,118.839165 1038.627808,128.053299 
	C1035.285645,137.339050 1031.932861,146.620956 1028.371216,156.496292 
	C1027.770020,155.156204 1027.297852,154.447540 1027.126343,153.672333 
	C1019.652405,119.909424 990.557922,100.767021 958.490601,100.080841 
	C939.169189,99.667397 919.831665,99.996490 900.501404,100.009254 
	C899.060974,100.010201 897.620728,100.151123 896.166016,100.227722 
	C896.166016,104.045433 896.166016,107.520714 896.007751,111.921989 
M598.499939,244.848770 
	C691.906860,244.848770 785.313782,244.848770 878.689819,244.848770 
	C878.689819,196.281387 878.689819,148.230530 878.689819,100.006081 
	C860.229919,100.006081 842.083679,99.950851 823.939453,100.121216 
	C822.627563,100.133537 820.676208,101.500648 820.136780,102.727821 
	C817.246094,109.303589 814.715454,116.037376 812.048279,122.711693 
	C808.004883,132.830139 803.951416,142.944550 799.607910,153.795898 
	C792.670776,136.654648 785.914795,120.465492 779.650330,104.088348 
	C778.271912,100.484825 776.442871,99.942001 773.156006,99.951820 
	C742.331482,100.043907 711.506592,100.006432 680.681763,100.006409 
	C679.042053,100.006401 677.402344,100.006409 675.720398,100.006409 
	C668.597900,117.846535 661.601990,135.369675 654.362671,153.502548 
	C653.616455,151.891617 653.098999,150.885406 652.674500,149.841385 
	C646.436096,134.498489 640.065063,119.206551 634.103821,103.756531 
	C632.913635,100.672104 631.486145,99.930946 628.498108,99.951515 
	C611.670227,100.067375 594.841125,100.004555 578.012451,100.026848 
	C576.747253,100.028526 575.482361,100.218735 573.830078,100.352692 
	C573.830078,107.347023 573.830078,114.035210 573.830078,121.239914 
	C556.986267,104.109169 536.842346,96.814125 513.852844,98.453461 
	C490.858765,100.093124 472.144043,110.463516 458.462036,129.440323 
	C431.141235,86.232132 355.284576,88.046700 332.543457,138.089172 
	C305.094208,113.287560 262.557129,119.178841 243.149124,141.642395 
	C221.508881,166.689590 223.935150,213.229355 251.042923,233.360641 
	C265.993927,244.463806 282.917572,247.908279 301.065613,244.881973 
	C317.950195,242.066360 331.288391,233.337646 340.767029,218.719772 
	C356.670105,237.548859 376.711823,245.744629 400.889923,245.087067 
	C425.320557,244.422623 444.478210,234.358826 458.523590,214.355240 
	C480.736298,247.983521 536.521973,259.790710 574.144165,222.886230 
	C574.144165,230.376526 574.144165,237.415085 574.144165,244.849075 
	C582.244080,244.849075 589.872009,244.849075 598.499939,244.848770 
M155.862503,149.224686 
	C145.412582,151.834229 134.950333,154.396301 124.525177,157.101334 
	C122.840866,157.538361 121.126610,158.363724 119.763512,159.437714 
	C116.105072,162.320190 112.629463,165.434723 109.094254,168.446045 
	C118.635979,170.626312 123.195000,179.022247 127.897758,187.280807 
	C128.884293,189.013275 129.944870,190.703613 130.930771,192.436447 
	C138.470993,205.689453 150.435623,210.918808 165.063431,210.877182 
	C179.282608,210.836700 189.128677,204.032120 192.696136,190.293137 
	C194.916489,181.742081 195.588776,172.611374 195.622070,163.735809 
	C195.642532,158.286362 195.932648,154.151810 201.990082,151.883392 
	C198.105438,150.181488 194.530487,148.184113 190.940109,148.156006 
	C179.536774,148.066711 168.127686,148.711594 155.862503,149.224686 
M73.164497,201.694138 
	C76.438690,197.319687 80.036011,193.146774 82.917198,188.527206 
	C88.278427,179.931259 92.375267,170.227310 102.628922,168.548477 
	C99.183922,165.567169 95.491356,162.343353 91.757111,159.168579 
	C91.155678,158.657257 90.411690,158.227432 89.660843,157.990616 
	C69.490883,151.628815 49.106804,146.333481 27.709103,147.139359 
	C21.492367,147.373474 15.263697,148.257233 9.411196,152.363556 
	C14.878006,153.921661 16.149204,157.270981 16.116655,162.022430 
	C16.066746,169.308502 16.027124,176.704605 17.173504,183.863403 
	C18.948063,194.945007 23.449461,205.062637 35.120922,208.779160 
	C48.491501,213.036713 61.386578,211.461121 73.164497,201.694138 
z"/>
<path fill="#FDFCFC" opacity="1.000000" stroke="none" 
	d="
M597.999939,244.848923 
	C589.872009,244.849075 582.244080,244.849075 574.144165,244.849075 
	C574.144165,237.415085 574.144165,230.376526 574.144165,222.886230 
	C536.521973,259.790710 480.736298,247.983521 458.523590,214.355240 
	C444.478210,234.358826 425.320557,244.422623 400.889923,245.087067 
	C376.711823,245.744629 356.670105,237.548859 340.767029,218.719772 
	C331.288391,233.337646 317.950195,242.066360 301.065613,244.881973 
	C282.917572,247.908279 265.993927,244.463806 251.042923,233.360641 
	C223.935150,213.229355 221.508881,166.689590 243.149124,141.642395 
	C262.557129,119.178841 305.094208,113.287560 332.543457,138.089172 
	C355.284576,88.046700 431.141235,86.232132 458.462036,129.440323 
	C472.144043,110.463516 490.858765,100.093124 513.852844,98.453461 
	C536.842346,96.814125 556.986267,104.109169 573.830078,121.239914 
	C573.830078,114.035210 573.830078,107.347023 573.830078,100.352692 
	C575.482361,100.218735 576.747253,100.028526 578.012451,100.026848 
	C594.841125,100.004555 611.670227,100.067375 628.498108,99.951515 
	C631.486145,99.930946 632.913635,100.672104 634.103821,103.756531 
	C640.065063,119.206551 646.436096,134.498489 652.674500,149.841385 
	C653.098999,150.885406 653.616455,151.891617 654.362671,153.502548 
	C661.601990,135.369675 668.597900,117.846535 675.720398,100.006409 
	C677.402344,100.006409 679.042053,100.006401 680.681763,100.006409 
	C711.506592,100.006432 742.331482,100.043907 773.156006,99.951820 
	C776.442871,99.942001 778.271912,100.484825 779.650330,104.088348 
	C785.914795,120.465492 792.670776,136.654648 799.607910,153.795898 
	C803.951416,142.944550 808.004883,132.830139 812.048279,122.711693 
	C814.715454,116.037376 817.246094,109.303589 820.136780,102.727821 
	C820.676208,101.500648 822.627563,100.133537 823.939453,100.121216 
	C842.083679,99.950851 860.229919,100.006081 878.689819,100.006081 
	C878.689819,148.230530 878.689819,196.281387 878.689819,244.848770 
	C785.313782,244.848770 691.906860,244.848770 597.999939,244.848923 
M690.918640,174.969101 
	C690.918640,193.027344 690.918640,211.085587 690.918640,229.239655 
	C700.579956,229.239655 709.651367,229.239655 718.773743,229.239655 
	C718.773743,210.650146 718.773743,192.368576 718.947266,173.153198 
	C718.947266,153.891525 718.947266,134.629837 718.947266,115.007553 
	C711.375610,115.007553 704.405945,115.007561 697.436218,115.007561 
	C685.979187,115.007561 685.929321,114.987724 681.732788,125.548401 
	C675.347595,141.616959 669.039490,157.716171 662.209106,174.298080 
	C659.680908,180.415512 657.152771,186.532928 654.355835,193.300720 
	C651.335083,186.377594 648.641357,180.203964 645.944702,173.289383 
	C638.605347,155.125183 631.289429,136.951431 623.880432,118.815697 
	C623.313477,117.427895 622.114868,115.250008 621.166260,115.226898 
	C610.606628,114.969543 600.038391,115.064636 589.293518,115.064636 
	C589.293518,135.526260 589.293518,155.290009 589.189819,175.982101 
	C589.189819,193.598328 589.189819,211.214569 589.189819,229.174088 
	C598.690674,229.174088 607.721375,229.174088 617.008179,229.174088 
	C617.008179,210.856567 617.008179,192.901642 617.152100,174.048767 
	C617.152100,170.694885 617.152100,167.341019 617.152100,163.987137 
	C617.428345,163.935364 617.704590,163.883606 617.980835,163.831848 
	C619.420349,167.257294 620.859863,170.682755 622.354736,174.811203 
	C628.737793,191.912018 635.063416,209.034882 641.607361,226.073914 
	C642.162415,227.519043 644.118896,229.301743 645.523010,229.392029 
	C651.321350,229.764862 657.162170,229.662567 662.976318,229.442932 
	C664.095642,229.400650 665.783875,228.278015 666.165955,227.261520 
	C672.815125,209.569916 679.301270,191.817017 686.250793,173.471252 
	C687.552734,170.293884 688.854614,167.116516 690.156555,163.939148 
	C690.478943,164.034958 690.801331,164.130768 691.123718,164.226578 
	C691.123718,167.504257 691.123718,170.781952 690.918640,174.969101 
M864.150024,174.025635 
	C864.150024,154.459656 864.150024,134.893677 864.150024,115.006073 
	C857.907349,115.006073 852.434509,114.963898 846.962585,115.018318 
	C841.815002,115.069496 835.461365,113.423248 831.861511,115.837990 
	C828.277771,118.241905 827.340210,124.720787 825.450134,129.495132 
	C819.584045,144.312515 813.816711,159.168976 807.477600,174.476425 
	C804.984863,180.577637 802.492188,186.678864 799.782654,193.310699 
	C796.734680,186.417877 793.962769,180.149490 791.144104,173.128082 
	C783.772034,154.796875 776.433350,136.452011 768.955383,118.164108 
	C768.436707,116.895470 766.901917,115.169983 765.806213,115.145355 
	C755.529236,114.914482 745.244934,115.008362 734.659302,115.008362 
	C734.659302,135.329422 734.659302,155.225845 734.508972,176.033707 
	C734.508972,193.737808 734.508972,211.441925 734.508972,229.194931 
	C744.401611,229.194931 753.467590,229.194931 762.710693,229.194931 
	C762.710693,210.921280 762.710693,192.990295 762.875183,174.158585 
	C762.875183,171.035233 762.875183,167.911865 762.875183,164.788513 
	C763.151855,164.779343 763.428528,164.770157 763.705200,164.760986 
	C765.047852,167.857208 766.390503,170.953415 767.839722,174.814194 
	C773.953674,191.310440 780.221375,207.752426 786.073792,224.340942 
	C787.545471,228.512177 789.511169,230.065598 793.906921,229.641785 
	C799.479431,229.104507 806.396240,231.134933 810.351746,228.492737 
	C814.092896,225.993820 814.868530,218.924469 816.745422,213.791138 
	C821.583618,200.558426 826.309448,187.284622 831.649658,173.602081 
	C832.904785,170.405365 834.159973,167.208633 835.415161,164.011917 
	C835.708496,164.085236 836.001770,164.158554 836.295105,164.231857 
	C836.295105,167.838745 836.295105,171.445633 836.190063,175.980896 
	C836.190063,193.612946 836.190063,211.244995 836.190063,229.193954 
	C845.635193,229.193954 854.693787,229.193954 864.006714,229.193954 
	C864.006714,210.883179 864.006714,192.915222 864.150024,174.025635 
M369.076172,173.181519 
	C369.410095,169.708420 369.392242,166.157288 370.142090,162.776443 
	C372.675537,151.353714 378.980652,142.978653 390.774261,140.129837 
	C403.209961,137.125992 413.011810,141.152344 420.349487,151.446869 
	C421.062195,152.446793 422.209229,153.829895 423.176971,153.848038 
	C432.750244,154.027740 442.328217,153.956757 451.960480,153.956757 
	C449.200745,129.016586 421.425110,111.246925 390.480377,114.033180 
	C360.374664,116.743889 338.623627,143.194260 340.919495,174.939255 
	C340.874664,204.707962 364.016083,231.215683 400.425995,230.308136 
	C431.307098,229.538422 450.421417,206.729736 451.640656,190.162369 
	C442.481110,190.162369 433.336243,190.042068 424.201416,190.290909 
	C422.817047,190.328598 421.071472,191.800293 420.182892,193.085617 
	C410.511353,207.075348 390.590668,208.924286 378.394012,197.072067 
	C371.826843,190.690369 370.219147,182.483871 369.076172,173.181519 
M334.099854,173.183853 
	C333.259308,165.542145 330.244598,158.788910 325.434387,152.880585 
	C312.501953,136.995804 286.794037,132.028427 267.271515,141.977982 
	C254.321228,148.578049 246.514206,159.183334 244.309921,174.528610 
	C244.351944,181.139435 243.462006,187.913727 244.588104,194.334412 
	C251.585983,234.233932 297.156342,238.478470 318.320831,221.587021 
	C325.627533,215.755508 330.530212,208.472260 332.942200,199.001587 
	C323.469971,199.001587 314.653168,198.885681 305.845520,199.118301 
	C304.415405,199.156082 302.656433,200.441986 301.681213,201.657761 
	C297.180084,207.269135 290.050659,209.393219 282.845428,206.970490 
	C276.218445,204.742203 272.125977,198.779709 272.103363,190.747513 
	C292.807129,190.747513 313.517487,190.747513 335.303558,190.747513 
	C334.836731,184.747818 334.418854,179.377258 334.099854,173.183853 
M577.948730,173.172897 
	C579.251648,132.617264 543.142639,105.300171 503.476044,115.368950 
	C476.568695,122.198982 457.947754,148.469711 460.921112,174.932007 
	C462.055603,181.099792 462.351227,187.573212 464.467865,193.383179 
	C474.350555,220.510391 503.198669,235.607254 532.188416,229.327560 
	C559.256836,223.464050 578.880615,199.685196 577.948730,173.172897 
M426.507812,168.915237 
	C425.509521,168.915421 424.489594,168.780930 423.516327,168.937149 
	C415.932587,170.154373 410.429871,168.608566 407.854980,160.089279 
	C406.321320,155.015060 400.319946,153.399796 394.996033,154.408447 
	C385.617340,156.185257 383.039795,167.467010 384.201813,175.634842 
	C385.478333,184.607620 389.512726,189.019867 396.173950,189.990189 
	C402.392487,190.896027 406.317413,187.945999 410.345581,178.907806 
	C411.660278,175.957932 413.363220,174.873260 416.718506,174.970963 
	C426.450989,175.254364 436.197052,175.071350 446.092346,175.071350 
	C445.963470,172.629196 445.870728,170.871643 445.767456,168.915237 
	C439.444763,168.915237 433.475037,168.915237 426.507812,168.915237 
z"/>
<path fill="#FCFCFC" opacity="1.000000" stroke="none" 
	d="
M896.189636,245.007553 
	C896.131714,242.303101 896.073730,239.598648 896.454834,236.365356 
	C897.595581,234.083450 898.904053,232.332260 898.909485,230.577057 
	C899.026550,192.444107 899.035645,154.310547 898.878357,116.177872 
	C898.871155,114.446869 897.110168,112.723114 896.166016,110.995987 
	C896.166016,107.520714 896.166016,104.045433 896.166016,100.227722 
	C897.620728,100.151123 899.060974,100.010201 900.501404,100.009254 
	C919.831665,99.996490 939.169189,99.667397 958.490601,100.080841 
	C990.557922,100.767021 1019.652405,119.909424 1027.126343,153.672333 
	C1027.297852,154.447540 1027.770020,155.156204 1028.371216,156.496292 
	C1031.932861,146.620956 1035.285645,137.339050 1038.627808,128.053299 
	C1041.944214,118.839165 1045.250000,109.621201 1048.707275,99.996002 
	C1065.312378,99.996002 1081.943237,99.920738 1098.569580,100.158325 
	C1099.729248,100.174896 1101.377441,102.320297 1101.920288,103.798340 
	C1111.791504,130.671402 1121.527832,157.593918 1131.737549,185.731232 
	C1131.737549,156.553864 1131.737549,128.616730 1131.737549,100.255447 
	C1133.518311,100.155128 1134.941895,100.006279 1136.365479,100.005142 
	C1154.529297,99.990662 1172.694824,100.154022 1190.856567,99.961136 
	C1216.747192,99.686172 1238.037354,109.830635 1252.842529,129.155151 
	C1252.842529,119.284210 1252.842529,109.919868 1252.842529,99.994713 
	C1255.332275,99.994713 1257.432739,99.994408 1259.533203,99.994766 
	C1277.197021,99.997757 1294.862427,100.137741 1312.524292,99.953896 
	C1323.562500,99.838989 1334.091797,101.880867 1344.266113,106.035019 
	C1345.115601,106.381859 1345.999268,106.644783 1347.533325,107.178505 
	C1346.342407,104.519753 1345.439331,102.503342 1344.402710,100.189148 
	C1365.192627,100.189148 1385.613281,100.189148 1406.420410,100.189148 
	C1411.321777,110.853157 1416.304199,121.693451 1421.505737,133.010620 
	C1426.122925,122.844177 1430.518555,112.935181 1435.183960,103.154907 
	C1435.840332,101.779022 1437.807129,100.142693 1439.182617,100.128807 
	C1458.669678,99.932045 1478.159302,99.994865 1498.496338,99.994865 
	C1493.636719,109.307549 1489.007812,118.106133 1484.443848,126.938332 
	C1473.094604,148.901550 1461.732056,170.858154 1450.513672,192.888077 
	C1449.445679,194.985367 1448.904907,197.575684 1448.882324,199.944366 
	C1448.739014,215.074799 1448.809326,230.207260 1448.809326,245.649231 
	C1430.557861,245.649231 1412.639771,245.649231 1394.012573,245.649231 
	C1394.012573,244.242706 1394.012329,242.658783 1394.012695,241.074875 
	C1394.015381,229.576675 1393.406860,218.035507 1394.211426,206.593674 
	C1394.875977,197.141724 1391.004517,189.776169 1386.378052,182.116501 
	C1381.633179,216.439240 1359.509277,239.306335 1325.730469,244.798492 
	C1321.006592,245.566559 1316.160645,245.853333 1311.368286,245.882843 
	C1292.077881,246.001694 1272.786377,245.932053 1253.119629,245.932053 
	C1253.119629,236.196121 1253.119629,226.792984 1253.119629,217.501266 
	C1247.062988,222.794647 1241.521484,228.422318 1235.210083,232.985367 
	C1223.238281,241.641006 1209.252075,245.463882 1194.770386,245.691925 
	C1161.791626,246.211243 1128.799072,245.855759 1095.426880,245.855759 
	C1093.381348,239.887390 1091.160645,233.907974 1089.320312,227.813675 
	C1088.479370,225.029205 1087.382568,223.777573 1084.222290,223.918472 
	C1077.736206,224.207642 1071.225220,224.121323 1064.730713,223.949875 
	C1062.023682,223.878403 1060.624023,224.524872 1059.868286,227.402100 
	C1058.502319,232.602264 1056.770020,237.731430 1054.777344,242.725311 
	C1054.228882,244.099915 1052.225464,245.795792 1050.872192,245.811218 
	C1032.881226,246.016342 1014.887146,245.948196 996.224854,245.948196 
	C997.676453,241.615463 999.025879,237.587616 1000.680969,232.647446 
	C995.820312,235.015701 991.685181,237.056946 987.527466,239.051010 
	C977.214111,243.997375 966.137939,245.680130 954.899780,245.853043 
	C935.907593,246.145233 916.907654,245.938889 897.357056,245.694183 
	C896.641357,245.240204 896.436890,245.093979 896.189636,245.007553 
M1445.951782,174.554077 
	C1456.595581,153.967209 1467.239380,133.380325 1478.210083,112.161041 
	C1467.784790,112.161041 1458.326538,112.302658 1448.876831,112.081917 
	C1445.697998,112.007660 1444.189453,113.144783 1442.941040,115.968048 
	C1437.703247,127.813469 1432.245361,139.561874 1426.836060,151.331039 
	C1425.215576,154.856750 1423.490479,158.334351 1421.542114,162.399551 
	C1414.169067,146.468735 1407.175537,131.228256 1400.009277,116.069389 
	C1399.276733,114.519638 1397.542114,112.382309 1396.217407,112.342285 
	C1385.957031,112.032310 1375.683105,112.171326 1364.442871,112.171326 
	C1375.792603,133.989975 1386.778320,155.108719 1397.966675,176.907028 
	C1398.893311,178.663757 1399.720703,180.482040 1400.763916,182.166519 
	C1405.064697,189.109924 1407.142334,196.432663 1406.619263,204.789017 
	C1406.031372,214.180801 1406.483887,223.637680 1406.483887,233.283295 
	C1416.625610,233.283295 1426.197510,233.283295 1436.173584,233.283295 
	C1436.173584,229.259186 1436.326172,225.455704 1436.147217,221.667847 
	C1435.375488,205.331253 1435.190552,189.136353 1445.951782,174.554077 
M1114.247070,173.995300 
	C1107.203003,154.453781 1100.211914,134.892685 1093.002686,115.412224 
	C1092.489746,114.026276 1090.401978,112.346695 1089.003052,112.306427 
	C1079.515259,112.033325 1070.013184,112.055168 1060.523315,112.291412 
	C1059.212891,112.324036 1057.225830,113.800339 1056.764526,115.054314 
	C1049.424072,135.010162 1042.281372,155.038788 1034.716797,175.669159 
	C1027.780762,194.789734 1020.844543,213.910309 1013.735535,233.507492 
	C1023.441711,233.507492 1032.416382,233.365982 1041.381958,233.588150 
	C1044.319092,233.660934 1045.381104,232.561340 1046.181396,229.945374 
	C1048.018188,223.940887 1050.202759,218.042786 1052.280884,212.000549 
	C1066.342651,212.000549 1080.168701,211.914078 1093.989990,212.133972 
	C1095.375977,212.156036 1097.445801,213.753510 1097.979980,215.102280 
	C1100.353027,221.094238 1102.282104,227.262009 1104.278809,233.094757 
	C1114.924438,233.094757 1125.153564,233.094757 1135.910400,233.094757 
	C1128.572998,213.287949 1121.435059,194.019699 1114.247070,173.995300 
M908.009521,175.990372 
	C908.009521,195.102036 908.009521,214.213699 908.009521,233.500671 
	C918.336243,233.500671 928.165100,233.691757 937.983093,233.448227 
	C948.278564,233.192841 958.694702,233.390335 968.828491,231.864624 
	C997.296021,227.578659 1017.640381,203.071716 1016.975525,174.152161 
	C1017.197754,139.504868 996.895752,116.147240 962.574707,112.916245 
	C948.544983,111.595490 934.319824,112.341484 920.183289,112.171722 
	C916.242676,112.124397 912.301025,112.164520 908.145325,112.164520 
	C908.145325,133.526138 908.145325,154.298462 908.009521,175.990372 
M1374.251709,174.315063 
	C1376.298218,142.877899 1354.060791,115.878578 1322.536133,113.207893 
	C1304.839722,111.708687 1286.954834,112.428680 1269.154419,112.174362 
	C1268.060425,112.158737 1266.963379,112.367416 1265.670288,112.490524 
	C1265.670288,133.638672 1265.670288,154.417465 1265.489868,176.090851 
	C1265.489868,195.163589 1265.489868,214.236313 1265.489868,233.505539 
	C1276.474365,233.505539 1286.638062,233.705521 1296.790283,233.448746 
	C1306.754150,233.196762 1316.849731,233.372025 1326.636597,231.799271 
	C1354.974609,227.245377 1375.314331,202.395950 1374.251709,174.315063 
M1144.489990,176.090973 
	C1144.489990,195.163986 1144.489990,214.236984 1144.489990,233.008072 
	C1162.804321,233.008072 1180.313110,233.636185 1197.760864,232.871994 
	C1230.034912,231.458435 1252.687622,207.402924 1253.476196,174.336990 
	C1253.942261,140.391983 1233.546265,116.249115 1200.063599,113.073097 
	C1183.055908,111.459816 1165.807617,112.374603 1148.667847,112.173660 
	C1147.406616,112.158875 1146.142700,112.364449 1144.670288,112.484711 
	C1144.670288,133.631424 1144.670288,154.413895 1144.489990,176.090973 
z"/>
<path fill="#F9636A" opacity="1.000000" stroke="none" 
	d="
M156.291656,149.148712 
	C168.127686,148.711594 179.536774,148.066711 190.940109,148.156006 
	C194.530487,148.184113 198.105438,150.181488 201.990082,151.883392 
	C195.932648,154.151810 195.642532,158.286362 195.622070,163.735809 
	C195.588776,172.611374 194.916489,181.742081 192.696136,190.293137 
	C189.128677,204.032120 179.282608,210.836700 165.063431,210.877182 
	C150.435623,210.918808 138.470993,205.689453 130.930771,192.436447 
	C129.944870,190.703613 128.884293,189.013275 127.897758,187.280807 
	C123.195000,179.022247 118.635979,170.626312 109.094254,168.446045 
	C112.629463,165.434723 116.105072,162.320190 119.763512,159.437714 
	C121.126610,158.363724 122.840866,157.538361 124.525177,157.101334 
	C134.950333,154.396301 145.412582,151.834229 156.291656,149.148712 
z"/>
<path fill="#F9636A" opacity="1.000000" stroke="none" 
	d="
M72.910294,201.944534 
	C61.386578,211.461121 48.491501,213.036713 35.120922,208.779160 
	C23.449461,205.062637 18.948063,194.945007 17.173504,183.863403 
	C16.027124,176.704605 16.066746,169.308502 16.116655,162.022430 
	C16.149204,157.270981 14.878006,153.921661 9.411196,152.363556 
	C15.263697,148.257233 21.492367,147.373474 27.709103,147.139359 
	C49.106804,146.333481 69.490883,151.628815 89.660843,157.990616 
	C90.411690,158.227432 91.155678,158.657257 91.757111,159.168579 
	C95.491356,162.343353 99.183922,165.567169 102.628922,168.548477 
	C92.375267,170.227310 88.278427,179.931259 82.917198,188.527206 
	C80.036011,193.146774 76.438690,197.319687 72.910294,201.944534 
z"/>
<path fill="#F7F7F7" opacity="1.000000" stroke="none" 
	d="
M896.086914,111.458984 
	C897.110168,112.723114 898.871155,114.446869 898.878357,116.177872 
	C899.035645,154.310547 899.026550,192.444107 898.909485,230.577057 
	C898.904053,232.332260 897.595581,234.083450 896.529968,235.920197 
	C896.109192,205.275238 896.046448,174.546616 895.998779,143.817947 
	C895.982300,133.185989 896.003662,122.553978 896.086914,111.458984 
z"/>
<path fill="#F7F7F7" opacity="1.000000" stroke="none" 
	d="
M896.142700,245.267258 
	C896.436890,245.093979 896.641357,245.240204 896.893555,245.614014 
	C896.687866,245.696854 896.391785,245.611908 896.142700,245.267258 
z"/>
<path fill="#FC646E" opacity="1.000000" stroke="none" 
	d="
M461.120789,174.059082 
	C457.947754,148.469711 476.568695,122.198982 503.476044,115.368950 
	C543.142639,105.300171 579.251648,132.617264 577.408752,173.633850 
	C567.886169,174.055557 558.903503,174.016281 549.821533,173.562988 
	C549.476013,170.334076 549.427612,167.485138 548.949402,164.710251 
	C546.906311,152.854233 541.085999,143.641388 529.054871,140.243973 
	C516.890259,136.808823 505.555695,138.656113 496.742279,148.746567 
	C490.432617,155.970444 489.424042,164.894196 488.605835,174.016632 
	C479.129364,174.057495 470.125061,174.058289 461.120789,174.059082 
z"/>
<path fill="#D12A3B" opacity="1.000000" stroke="none" 
	d="
M549.920898,173.977020 
	C558.903503,174.016281 567.886169,174.055557 577.322388,174.091064 
	C578.880615,199.685196 559.256836,223.464050 532.188416,229.327560 
	C503.198669,235.607254 474.350555,220.510391 464.467865,193.383179 
	C462.351227,187.573212 462.055603,181.099792 461.020935,174.495544 
	C470.125061,174.058289 479.129364,174.057495 488.747375,174.390503 
	C489.579529,176.369156 489.779114,178.016754 490.019348,179.658417 
	C492.132660,194.100952 502.758667,204.010178 517.113342,204.933960 
	C532.333374,205.913452 544.144958,197.627182 548.016357,183.148163 
	C548.821533,180.136673 549.294739,177.036392 549.920898,173.977020 
z"/>
<path fill="#D22B3B" opacity="1.000000" stroke="none" 
	d="
M334.000977,174.006699 
	C334.418854,179.377258 334.836731,184.747818 335.303558,190.747513 
	C313.517487,190.747513 292.807129,190.747513 272.103363,190.747513 
	C272.125977,198.779709 276.218445,204.742203 282.845428,206.970490 
	C290.050659,209.393219 297.180084,207.269135 301.681213,201.657761 
	C302.656433,200.441986 304.415405,199.156082 305.845520,199.118301 
	C314.653168,198.885681 323.469971,199.001587 332.942200,199.001587 
	C330.530212,208.472260 325.627533,215.755508 318.320831,221.587021 
	C297.156342,238.478470 251.585983,234.233932 244.588104,194.334412 
	C243.462006,187.913727 244.351944,181.139435 245.038116,174.275909 
	C254.408096,174.043320 263.049866,174.063416 271.977417,174.427979 
	C282.080444,174.847778 291.897675,174.964661 301.714844,174.955734 
	C303.271271,174.954315 304.827179,174.386078 306.827759,174.095795 
	C316.181793,174.076691 325.091400,174.041687 334.000977,174.006699 
z"/>
<path fill="#FD646E" opacity="1.000000" stroke="none" 
	d="
M341.119690,174.058350 
	C338.623627,143.194260 360.374664,116.743889 390.480377,114.033180 
	C421.425110,111.246925 449.200745,129.016586 451.960480,153.956757 
	C442.328217,153.956757 432.750244,154.027740 423.176971,153.848038 
	C422.209229,153.829895 421.062195,152.446793 420.349487,151.446869 
	C413.011810,141.152344 403.209961,137.125992 390.774261,140.129837 
	C378.980652,142.978653 372.675537,151.353714 370.142090,162.776443 
	C369.392242,166.157288 369.410095,169.708420 368.518158,173.632660 
	C359.013336,174.075302 350.066498,174.066833 341.119690,174.058350 
z"/>
<path fill="#D22A3B" opacity="1.000000" stroke="none" 
	d="
M341.019592,174.498810 
	C350.066498,174.066833 359.013336,174.075302 368.420288,174.071198 
	C370.219147,182.483871 371.826843,190.690369 378.394012,197.072067 
	C390.590668,208.924286 410.511353,207.075348 420.182892,193.085617 
	C421.071472,191.800293 422.817047,190.328598 424.201416,190.290909 
	C433.336243,190.042068 442.481110,190.162369 451.640656,190.162369 
	C450.421417,206.729736 431.307098,229.538422 400.425995,230.308136 
	C364.016083,231.215683 340.874664,204.707962 341.019592,174.498810 
z"/>
<path fill="#FB6670" opacity="1.000000" stroke="none" 
	d="
M767.733154,174.049637 
	C766.390503,170.953415 765.047852,167.857208 763.705200,164.760986 
	C763.428528,164.770157 763.151855,164.779343 762.875183,164.788513 
	C762.875183,167.911865 762.875183,171.035233 762.344971,174.575653 
	C752.762878,175.035889 743.711121,175.079071 734.659302,175.122253 
	C734.659302,155.225845 734.659302,135.329422 734.659302,115.008362 
	C745.244934,115.008362 755.529236,114.914482 765.806213,115.145355 
	C766.901917,115.169983 768.436707,116.895470 768.955383,118.164108 
	C776.433350,136.452011 783.772034,154.796875 790.688110,173.572571 
	C782.732483,174.027924 775.232788,174.038773 767.733154,174.049637 
z"/>
<path fill="#FC646E" opacity="1.000000" stroke="none" 
	d="
M589.293518,175.053757 
	C589.293518,155.290009 589.293518,135.526260 589.293518,115.064636 
	C600.038391,115.064636 610.606628,114.969543 621.166260,115.226898 
	C622.114868,115.250008 623.313477,117.427895 623.880432,118.815697 
	C631.289429,136.951431 638.605347,155.125183 645.481506,173.681671 
	C637.445312,174.085373 629.872375,174.096771 622.299316,174.108185 
	C620.859863,170.682755 619.420349,167.257294 617.980835,163.831848 
	C617.704590,163.883606 617.428345,163.935364 617.152100,163.987137 
	C617.152100,167.341019 617.152100,170.694885 616.611389,174.481110 
	C607.144958,174.960220 598.219238,175.006989 589.293518,175.053757 
z"/>
<path fill="#FC646E" opacity="1.000000" stroke="none" 
	d="
M836.295105,175.052521 
	C836.295105,171.445633 836.295105,167.838745 836.295105,164.231857 
	C836.001770,164.158554 835.708496,164.085236 835.415161,164.011917 
	C834.159973,167.208633 832.904785,170.405365 830.891052,173.836945 
	C822.758667,174.051285 815.384888,174.030777 808.011108,174.010269 
	C813.816711,159.168976 819.584045,144.312515 825.450134,129.495132 
	C827.340210,124.720787 828.277771,118.241905 831.861511,115.837990 
	C835.461365,113.423248 841.815002,115.069496 846.962585,115.018318 
	C852.434509,114.963898 857.907349,115.006073 864.150024,115.006073 
	C864.150024,134.893677 864.150024,154.459656 863.609741,174.470581 
	C854.144653,174.961182 845.219849,175.006851 836.295105,175.052521 
z"/>
<path fill="#FC636D" opacity="1.000000" stroke="none" 
	d="
M662.698730,173.802368 
	C669.039490,157.716171 675.347595,141.616959 681.732788,125.548401 
	C685.929321,114.987724 685.979187,115.007561 697.436218,115.007561 
	C704.405945,115.007561 711.375610,115.007553 718.947266,115.007553 
	C718.947266,134.629837 718.947266,153.891525 718.407043,173.624786 
	C708.952454,174.084137 700.038086,174.071884 691.123718,174.059631 
	C691.123718,170.781952 691.123718,167.504257 691.123718,164.226578 
	C690.801331,164.130768 690.478943,164.034958 690.156555,163.939148 
	C688.854614,167.116516 687.552734,170.293884 685.580688,173.781876 
	C677.506653,173.995789 670.102722,173.899078 662.698730,173.802368 
z"/>
<path fill="#D22B3C" opacity="1.000000" stroke="none" 
	d="
M662.453918,174.050232 
	C670.102722,173.899078 677.506653,173.995789 685.366821,174.084991 
	C679.301270,191.817017 672.815125,209.569916 666.165955,227.261520 
	C665.783875,228.278015 664.095642,229.400650 662.976318,229.442932 
	C657.162170,229.662567 651.321350,229.764862 645.523010,229.392029 
	C644.118896,229.301743 642.162415,227.519043 641.607361,226.073914 
	C635.063416,209.034882 628.737793,191.912018 622.327026,174.459686 
	C629.872375,174.096771 637.445312,174.085373 645.482971,174.052155 
	C648.641357,180.203964 651.335083,186.377594 654.355835,193.300720 
	C657.152771,186.532928 659.680908,180.415512 662.453918,174.050232 
z"/>
<path fill="#D22B3C" opacity="1.000000" stroke="none" 
	d="
M807.744385,174.243347 
	C815.384888,174.030777 822.758667,174.051285 830.606323,174.049530 
	C826.309448,187.284622 821.583618,200.558426 816.745422,213.791138 
	C814.868530,218.924469 814.092896,225.993820 810.351746,228.492737 
	C806.396240,231.134933 799.479431,229.104507 793.906921,229.641785 
	C789.511169,230.065598 787.545471,228.512177 786.073792,224.340942 
	C780.221375,207.752426 773.953674,191.310440 767.786438,174.431915 
	C775.232788,174.038773 782.732483,174.027924 790.711487,173.949081 
	C793.962769,180.149490 796.734680,186.417877 799.782654,193.310699 
	C802.492188,186.678864 804.984863,180.577637 807.744385,174.243347 
z"/>
<path fill="#FC646E" opacity="1.000000" stroke="none" 
	d="
M271.691650,174.083496 
	C263.049866,174.063416 254.408096,174.043320 245.286697,173.956543 
	C246.514206,159.183334 254.321228,148.578049 267.271515,141.977982 
	C286.794037,132.028427 312.501953,136.995804 325.434387,152.880585 
	C330.244598,158.788910 333.259308,165.542145 334.050415,173.595276 
	C325.091400,174.041687 316.181793,174.076691 306.706543,173.716431 
	C304.647278,165.446274 299.697388,160.633270 292.370483,159.931641 
	C281.351959,158.876480 275.865295,162.631348 271.691650,174.083496 
z"/>
<path fill="#D12839" opacity="1.000000" stroke="none" 
	d="
M734.584106,175.577972 
	C743.711121,175.079071 752.762878,175.035889 762.262695,175.026016 
	C762.710693,192.990295 762.710693,210.921280 762.710693,229.194931 
	C753.467590,229.194931 744.401611,229.194931 734.508972,229.194931 
	C734.508972,211.441925 734.508972,193.737808 734.584106,175.577972 
z"/>
<path fill="#D12A3B" opacity="1.000000" stroke="none" 
	d="
M691.021179,174.514374 
	C700.038086,174.071884 708.952454,174.084137 718.320312,174.091705 
	C718.773743,192.368576 718.773743,210.650146 718.773743,229.239655 
	C709.651367,229.239655 700.579956,229.239655 690.918640,229.239655 
	C690.918640,211.085587 690.918640,193.027344 691.021179,174.514374 
z"/>
<path fill="#D12839" opacity="1.000000" stroke="none" 
	d="
M836.242554,175.516708 
	C845.219849,175.006851 854.144653,174.961182 863.538086,174.931396 
	C864.006714,192.915222 864.006714,210.883179 864.006714,229.193954 
	C854.693787,229.193954 845.635193,229.193954 836.190063,229.193954 
	C836.190063,211.244995 836.190063,193.612946 836.242554,175.516708 
z"/>
<path fill="#D12839" opacity="1.000000" stroke="none" 
	d="
M589.241699,175.517929 
	C598.219238,175.006989 607.144958,174.960220 616.539429,174.930084 
	C617.008179,192.901642 617.008179,210.856567 617.008179,229.174088 
	C607.721375,229.174088 598.690674,229.174088 589.189819,229.174088 
	C589.189819,211.214569 589.189819,193.598328 589.241699,175.517929 
z"/>
<path fill="#010101" opacity="1.000000" stroke="none" 
	d="
M427.006531,168.915237 
	C433.475037,168.915237 439.444763,168.915237 445.767456,168.915237 
	C445.870728,170.871643 445.963470,172.629196 446.092346,175.071350 
	C436.197052,175.071350 426.450989,175.254364 416.718506,174.970963 
	C413.363220,174.873260 411.660278,175.957932 410.345581,178.907806 
	C406.317413,187.945999 402.392487,190.896027 396.173950,189.990189 
	C389.512726,189.019867 385.478333,184.607620 384.201813,175.634842 
	C383.039795,167.467010 385.617340,156.185257 394.996033,154.408447 
	C400.319946,153.399796 406.321320,155.015060 407.854980,160.089279 
	C410.429871,168.608566 415.932587,170.154373 423.516327,168.937149 
	C424.489594,168.780930 425.509521,168.915421 427.006531,168.915237 
z"/>
<path fill="#585858" opacity="1.000000" stroke="none" 
	d="
M1144.670288,175.196381 
	C1144.670288,154.413895 1144.670288,133.631424 1144.670288,112.484711 
	C1146.142700,112.364449 1147.406616,112.158875 1148.667847,112.173660 
	C1165.807617,112.374603 1183.055908,111.459816 1200.063599,113.073097 
	C1233.546265,116.249115 1253.942261,140.391983 1252.851807,174.663300 
	C1242.561035,175.025650 1232.894775,175.061676 1223.205811,174.633942 
	C1223.660278,143.204254 1201.871948,134.419220 1173.965454,138.255096 
	C1173.965454,150.464478 1173.965454,162.742340 1173.499268,175.004211 
	C1163.578735,175.057602 1154.124512,175.126984 1144.670288,175.196381 
z"/>
<path fill="#585858" opacity="1.000000" stroke="none" 
	d="
M1265.670288,175.196259 
	C1265.670288,154.417465 1265.670288,133.638672 1265.670288,112.490524 
	C1266.963379,112.367416 1268.060425,112.158737 1269.154419,112.174362 
	C1286.954834,112.428680 1304.839722,111.708687 1322.536133,113.207893 
	C1354.060791,115.878578 1376.298218,142.877899 1373.650635,174.650223 
	C1363.420166,175.015900 1353.790527,175.046432 1344.133301,174.614670 
	C1344.706177,143.504349 1322.942505,134.300354 1294.965576,138.281174 
	C1294.965576,150.481384 1294.965576,162.750702 1294.499268,175.004089 
	C1284.578735,175.057526 1275.124512,175.126892 1265.670288,175.196259 
z"/>
<path fill="#565656" opacity="1.000000" stroke="none" 
	d="
M908.145325,175.070801 
	C908.145325,154.298462 908.145325,133.526138 908.145325,112.164520 
	C912.301025,112.164520 916.242676,112.124397 920.183289,112.171722 
	C934.319824,112.341484 948.544983,111.595490 962.574707,112.916245 
	C996.895752,116.147240 1017.197754,139.504868 1016.455383,174.581787 
	C1006.301880,175.014160 996.668518,175.016907 986.956421,174.574753 
	C987.250549,143.481018 965.747253,134.257950 937.695679,138.327164 
	C937.695679,150.544952 937.695679,162.826553 937.245972,175.097870 
	C927.245972,175.081970 917.695618,175.076385 908.145325,175.070801 
z"/>
<path fill="#030303" opacity="1.000000" stroke="none" 
	d="
M1114.297119,174.751434 
	C1121.435059,194.019699 1128.572998,213.287949 1135.910400,233.094757 
	C1125.153564,233.094757 1114.924438,233.094757 1104.278809,233.094757 
	C1102.282104,227.262009 1100.353027,221.094238 1097.979980,215.102280 
	C1097.445801,213.753510 1095.375977,212.156036 1093.989990,212.133972 
	C1080.168701,211.914078 1066.342651,212.000549 1052.280884,212.000549 
	C1050.202759,218.042786 1048.018188,223.940887 1046.181396,229.945374 
	C1045.381104,232.561340 1044.319092,233.660934 1041.381958,233.588150 
	C1032.416382,233.365982 1023.441711,233.507492 1013.735535,233.507492 
	C1020.844543,213.910309 1027.780762,194.789734 1035.367676,175.345917 
	C1043.911743,175.008804 1051.805786,174.933350 1059.697388,175.035431 
	C1061.192017,175.054749 1062.677490,175.778580 1064.100220,176.550812 
	C1062.772217,180.830063 1061.511108,184.735870 1060.179443,188.860809 
	C1069.925171,188.860809 1079.341675,188.860809 1089.082764,188.860809 
	C1087.694214,184.114349 1086.363403,179.564957 1085.499023,175.002441 
	C1095.409302,174.910049 1104.853271,174.830750 1114.297119,174.751434 
z"/>
<path fill="#030303" opacity="1.000000" stroke="none" 
	d="
M1344.161011,175.076965 
	C1353.790527,175.046432 1363.420166,175.015900 1373.517334,174.997406 
	C1375.314331,202.395950 1354.974609,227.245377 1326.636597,231.799271 
	C1316.849731,233.372025 1306.754150,233.196762 1296.790283,233.448746 
	C1286.638062,233.705521 1276.474365,233.505539 1265.489868,233.505539 
	C1265.489868,214.236313 1265.489868,195.163589 1265.580078,175.643555 
	C1275.124512,175.126892 1284.578735,175.057526 1294.593994,175.462997 
	C1295.155151,186.491577 1295.155151,197.045288 1295.155151,207.520996 
	C1327.361450,210.136261 1342.247925,200.109467 1344.161011,175.076965 
z"/>
<path fill="#020202" opacity="1.000000" stroke="none" 
	d="
M1223.228516,175.097702 
	C1232.894775,175.061676 1242.561035,175.025650 1252.708008,175.006363 
	C1252.687622,207.402924 1230.034912,231.458435 1197.760864,232.871994 
	C1180.313110,233.636185 1162.804321,233.008072 1144.489990,233.008072 
	C1144.489990,214.236984 1144.489990,195.163986 1144.580078,175.643677 
	C1154.124512,175.126984 1163.578735,175.057602 1173.593872,175.463135 
	C1174.154785,186.493652 1174.154785,197.049255 1174.154785,207.527374 
	C1206.443115,210.097916 1221.014282,200.300797 1223.228516,175.097702 
z"/>
<path fill="#010101" opacity="1.000000" stroke="none" 
	d="
M908.077393,175.530579 
	C917.695618,175.076385 927.245972,175.081970 937.317627,175.554657 
	C937.838989,186.566727 937.838989,197.111694 937.838989,207.829285 
	C943.095093,207.829285 947.574768,207.998230 952.037720,207.796890 
	C964.316162,207.242981 975.759949,204.292923 981.941711,192.493896 
	C984.701782,187.225723 985.400757,180.877640 987.035156,175.019669 
	C996.668518,175.016907 1006.301880,175.014160 1016.393555,175.041931 
	C1017.640381,203.071716 997.296021,227.578659 968.828491,231.864624 
	C958.694702,233.390335 948.278564,233.192841 937.983093,233.448227 
	C928.165100,233.691757 918.336243,233.500671 908.009521,233.500671 
	C908.009521,214.213699 908.009521,195.102036 908.077393,175.530579 
z"/>
<path fill="#575757" opacity="1.000000" stroke="none" 
	d="
M1397.764160,176.227448 
	C1386.778320,155.108719 1375.792603,133.989975 1364.442871,112.171326 
	C1375.683105,112.171326 1385.957031,112.032310 1396.217407,112.342285 
	C1397.542114,112.382309 1399.276733,114.519638 1400.009277,116.069389 
	C1407.175537,131.228256 1414.169067,146.468735 1421.542114,162.399551 
	C1423.490479,158.334351 1425.215576,154.856750 1426.836060,151.331039 
	C1432.245361,139.561874 1437.703247,127.813469 1442.941040,115.968048 
	C1444.189453,113.144783 1445.697998,112.007660 1448.876831,112.081917 
	C1458.326538,112.302658 1467.784790,112.161041 1478.210083,112.161041 
	C1467.239380,133.380325 1456.595581,153.967209 1445.232422,174.773468 
	C1430.584717,174.985504 1416.655884,174.936188 1402.728027,175.026260 
	C1401.070801,175.036957 1399.418701,175.808533 1397.764160,176.227448 
z"/>
<path fill="#575757" opacity="1.000000" stroke="none" 
	d="
M1064.167236,176.177353 
	C1062.677490,175.778580 1061.192017,175.054749 1059.697388,175.035431 
	C1051.805786,174.933350 1043.911743,175.008804 1035.556030,175.036743 
	C1042.281372,155.038788 1049.424072,135.010162 1056.764526,115.054314 
	C1057.225830,113.800339 1059.212891,112.324036 1060.523315,112.291412 
	C1070.013184,112.055168 1079.515259,112.033325 1089.003052,112.306427 
	C1090.401978,112.346695 1092.489746,114.026276 1093.002686,115.412224 
	C1100.211914,134.892685 1107.203003,154.453781 1114.272095,174.373383 
	C1104.853271,174.830750 1095.409302,174.910049 1085.283081,174.710236 
	C1081.363647,165.109543 1078.126709,155.787964 1074.650391,145.777664 
	C1070.959717,156.480377 1067.563477,166.328857 1064.167236,176.177353 
z"/>
<path fill="#050505" opacity="1.000000" stroke="none" 
	d="
M1397.865479,176.567230 
	C1399.418701,175.808533 1401.070801,175.036957 1402.728027,175.026260 
	C1416.655884,174.936188 1430.584717,174.985504 1445.015991,175.016327 
	C1435.190552,189.136353 1435.375488,205.331253 1436.147217,221.667847 
	C1436.326172,225.455704 1436.173584,229.259186 1436.173584,233.283295 
	C1426.197510,233.283295 1416.625610,233.283295 1406.483887,233.283295 
	C1406.483887,223.637680 1406.031372,214.180801 1406.619263,204.789017 
	C1407.142334,196.432663 1405.064697,189.109924 1400.763916,182.166519 
	C1399.720703,180.482040 1398.893311,178.663757 1397.865479,176.567230 
z"/>
<path fill="#FDFBFC" opacity="1.000000" stroke="none" 
	d="
M549.821533,173.562988 
	C549.294739,177.036392 548.821533,180.136673 548.016357,183.148163 
	C544.144958,197.627182 532.333374,205.913452 517.113342,204.933960 
	C502.758667,204.010178 492.132660,194.100952 490.019348,179.658417 
	C489.779114,178.016754 489.579529,176.369156 489.219574,174.350433 
	C489.424042,164.894196 490.432617,155.970444 496.742279,148.746567 
	C505.555695,138.656113 516.890259,136.808823 529.054871,140.243973 
	C541.085999,143.641388 546.906311,152.854233 548.949402,164.710251 
	C549.427612,167.485138 549.476013,170.334076 549.821533,173.562988 
M520.354614,153.930542 
	C510.372437,153.975998 506.368164,157.272842 504.913879,167.278854 
	C504.432037,170.594101 504.588135,174.083069 504.986115,177.429138 
	C505.963013,185.642303 511.405396,190.122253 519.815186,190.022491 
	C527.528564,189.930984 533.287720,184.801712 533.992432,177.022461 
	C534.320862,173.397339 534.316101,169.692062 533.981445,166.067535 
	C533.340393,159.125870 528.517395,154.707367 520.354614,153.930542 
z"/>
<path fill="#FFFDFD" opacity="1.000000" stroke="none" 
	d="
M271.977417,174.427979 
	C275.865295,162.631348 281.351959,158.876480 292.370483,159.931641 
	C299.697388,160.633270 304.647278,165.446274 306.262085,173.700531 
	C304.827179,174.386078 303.271271,174.954315 301.714844,174.955734 
	C291.897675,174.964661 282.080444,174.847778 271.977417,174.427979 
z"/>
<path fill="#F8F8F8" opacity="1.000000" stroke="none" 
	d="
M1223.205811,174.633942 
	C1221.014282,200.300797 1206.443115,210.097916 1174.154785,207.527374 
	C1174.154785,197.049255 1174.154785,186.493652 1174.060059,175.479111 
	C1173.965454,162.742340 1173.965454,150.464478 1173.965454,138.255096 
	C1201.871948,134.419220 1223.660278,143.204254 1223.205811,174.633942 
M1203.253540,154.094116 
	C1198.275146,150.934601 1192.962769,149.308350 1187.040283,150.245651 
	C1187.040283,165.287277 1187.040283,180.015778 1187.040283,195.690048 
	C1191.401367,194.844650 1195.429810,194.369370 1199.276978,193.263275 
	C1213.527344,189.166214 1214.262573,162.646408 1203.253540,154.094116 
z"/>
<path fill="#F9F9F9" opacity="1.000000" stroke="none" 
	d="
M1344.133301,174.614655 
	C1342.247925,200.109467 1327.361450,210.136261 1295.155151,207.520996 
	C1295.155151,197.045288 1295.155151,186.491577 1295.060303,175.478943 
	C1294.965576,162.750702 1294.965576,150.481384 1294.965576,138.281174 
	C1322.942505,134.300354 1344.706177,143.504349 1344.133301,174.614655 
M1307.816406,169.500366 
	C1307.816406,177.914230 1307.816406,186.328079 1307.816406,194.907196 
	C1316.650513,195.547455 1324.484497,194.027466 1328.648926,186.121414 
	C1333.716064,176.501587 1333.636353,166.202927 1327.242798,157.179428 
	C1322.765137,150.860123 1315.514893,149.549698 1307.816040,150.091675 
	C1307.816040,156.574768 1307.816040,162.537613 1307.816406,169.500366 
z"/>
<path fill="#FBFBFB" opacity="1.000000" stroke="none" 
	d="
M986.956421,174.574753 
	C985.400757,180.877640 984.701782,187.225723 981.941711,192.493896 
	C975.759949,204.292923 964.316162,207.242981 952.037720,207.796890 
	C947.574768,207.998230 943.095093,207.829285 937.838989,207.829285 
	C937.838989,197.111694 937.838989,186.566727 937.767334,175.564972 
	C937.695679,162.826553 937.695679,150.544952 937.695679,138.327164 
	C965.747253,134.257950 987.250549,143.481018 986.956421,174.574753 
M949.984314,193.276443 
	C950.558960,193.868011 951.238525,195.042725 951.691895,194.961105 
	C956.297058,194.132217 961.295410,193.963242 965.355591,191.944305 
	C974.164795,187.563980 974.410034,178.929886 974.150696,170.468063 
	C973.717834,156.350159 964.428223,148.583023 950.297058,150.433563 
	C950.205750,150.570160 950.034729,150.706604 950.034485,150.843384 
	C950.008911,164.667389 949.996155,178.491394 949.984314,193.276443 
z"/>
<path fill="#FCFCFC" opacity="1.000000" stroke="none" 
	d="
M1064.100220,176.550812 
	C1067.563477,166.328857 1070.959717,156.480377 1074.650391,145.777664 
	C1078.126709,155.787964 1081.363647,165.109543 1084.816650,174.723328 
	C1086.363403,179.564957 1087.694214,184.114349 1089.082764,188.860809 
	C1079.341675,188.860809 1069.925171,188.860809 1060.179443,188.860809 
	C1061.511108,184.735870 1062.772217,180.830063 1064.100220,176.550812 
z"/>
<path fill="#010101" opacity="1.000000" stroke="none" 
	d="
M520.792114,153.931442 
	C528.517395,154.707367 533.340393,159.125870 533.981445,166.067535 
	C534.316101,169.692062 534.320862,173.397339 533.992432,177.022461 
	C533.287720,184.801712 527.528564,189.930984 519.815186,190.022491 
	C511.405396,190.122253 505.963013,185.642303 504.986115,177.429138 
	C504.588135,174.083069 504.432037,170.594101 504.913879,167.278854 
	C506.368164,157.272842 510.372437,153.975998 520.792114,153.931442 
z"/>
<path fill="#010101" opacity="1.000000" stroke="none" 
	d="
M1203.554077,154.315491 
	C1214.262573,162.646408 1213.527344,189.166214 1199.276978,193.263275 
	C1195.429810,194.369370 1191.401367,194.844650 1187.040283,195.690048 
	C1187.040283,180.015778 1187.040283,165.287277 1187.040283,150.245651 
	C1192.962769,149.308350 1198.275146,150.934601 1203.554077,154.315491 
z"/>
<path fill="#010101" opacity="1.000000" stroke="none" 
	d="
M1307.816162,169.000412 
	C1307.816040,162.537613 1307.816040,156.574768 1307.816040,150.091675 
	C1315.514893,149.549698 1322.765137,150.860123 1327.242798,157.179428 
	C1333.636353,166.202927 1333.716064,176.501587 1328.648926,186.121414 
	C1324.484497,194.027466 1316.650513,195.547455 1307.816406,194.907196 
	C1307.816406,186.328079 1307.816406,177.914230 1307.816162,169.000412 
z"/>
<path fill="#010101" opacity="1.000000" stroke="none" 
	d="
M949.983521,192.795929 
	C949.996155,178.491394 950.008911,164.667389 950.034485,150.843384 
	C950.034729,150.706604 950.205750,150.570160 950.297058,150.433563 
	C964.428223,148.583023 973.717834,156.350159 974.150696,170.468063 
	C974.410034,178.929886 974.164795,187.563980 965.355591,191.944305 
	C961.295410,193.963242 956.297058,194.132217 951.691895,194.961105 
	C951.238525,195.042725 950.558960,193.868011 949.983521,192.795929 
z"/>
</svg>